<svg id="Group_9" data-name="Group 9" xmlns="http://www.w3.org/2000/svg" xmlns:xlink="http://www.w3.org/1999/xlink" width="52.162" height="45.129" viewBox="0 0 52.162 45.129">
  <defs>
    <clipPath id="clip-path">
      <rect id="Rectangle_10" data-name="Rectangle 10" width="52.162" height="45.129" fill="#a4abeb"/>
    </clipPath>
  </defs>
  <g id="Group_8" data-name="Group 8" clip-path="url(#clip-path)">
    <path id="Path_542" data-name="Path 542" d="M26.088,45.128q-9.872,0-19.744,0A6.3,6.3,0,0,1,0,38.809Q0,26.033,0,13.257A6.3,6.3,0,0,1,6.338,6.933c2.3,0,4.593-.01,6.889.008a.644.644,0,0,0,.735-.529c.24-.793.507-1.58.8-2.357A6.267,6.267,0,0,1,20.563,0Q26.042,0,31.52,0A6.255,6.255,0,0,1,37.4,4.033c.3.79.575,1.6.823,2.405a.613.613,0,0,0,.7.5c2.35-.016,4.7-.012,7.052-.006a6.306,6.306,0,0,1,6.188,6.2q.008,12.884,0,25.769a6.3,6.3,0,0,1-6.218,6.225q-9.926.008-19.853,0m-.038-3.541H37.983q3.634,0,7.268,0c2.229,0,3.358-1.138,3.361-3.379q0-.92,0-1.841,0-11.287,0-22.574a3.463,3.463,0,0,0-.493-2.017,3.024,3.024,0,0,0-2.709-1.3q-4.068,0-8.136,0A1.806,1.806,0,0,1,35.3,9.062c-.376-1.11-.735-2.226-1.114-3.334a2.9,2.9,0,0,0-3-2.18q-5.1-.018-10.2,0a2.9,2.9,0,0,0-3,2.175c-.379,1.109-.738,2.225-1.114,3.335a1.807,1.807,0,0,1-1.973,1.416q-4.1,0-8.19,0A2.965,2.965,0,0,0,3.96,11.91a3.428,3.428,0,0,0-.41,1.824q0,7.308,0,14.617,0,5.035,0,10.069a2.962,2.962,0,0,0,1.468,2.773,3.619,3.619,0,0,0,1.886.395H26.049" transform="translate(0 0)" fill="#a4abeb"/>
    <path id="Path_543" data-name="Path 543" d="M102.883,109.755A13.046,13.046,0,1,1,116,96.877a13.079,13.079,0,0,1-13.114,12.878m9.527-12.926a9.483,9.483,0,1,0-18.966-.078,9.484,9.484,0,0,0,18.966.078" transform="translate(-76.835 -71.558)" fill="#a4abeb"/>
    <path id="Path_544" data-name="Path 544" d="M289.776,99.369a1.769,1.769,0,1,1,1.782-1.76,1.711,1.711,0,0,1-1.782,1.76" transform="translate(-246.344 -81.966)" fill="#a4abeb"/>
  </g>
</svg>
