<?xml version="1.0" encoding="utf-8"?>
<!-- Generator: Adobe Illustrator 26.3.1, SVG Export Plug-In . SVG Version: 6.00 Build 0)  -->
<svg version="1.1" id="Layer_1" xmlns="http://www.w3.org/2000/svg" xmlns:xlink="http://www.w3.org/1999/xlink" x="0px" y="0px"
	 viewBox="0 0 16 16" style="enable-background:new 0 0 16 16;" xml:space="preserve">
<style type="text/css">
	.st0{fill:none;}
	.st1{fill:#FFFFFF;}
	.st2{enable-background:new    ;}
</style>
<g transform="translate(-1211 -64)">
	<g transform="translate(1211 64)">
		<g>
			<circle class="st0" cx="8" cy="8" r="8"/>
		</g>
		<g>
			<path class="st1" d="M8,16c-4.4,0-8-3.6-8-8s3.6-8,8-8s8,3.6,8,8S12.4,16,8,16z M8,1.5C4.4,1.5,1.5,4.4,1.5,8s2.9,6.5,6.5,6.5
				s6.5-2.9,6.5-6.5S11.6,1.5,8,1.5z"/>
		</g>
	</g>
	<g class="st2">
		<path class="st1" d="M1218,74c0-0.2,0-0.5,0.1-0.7c0-0.2,0.1-0.4,0.2-0.6c0.1-0.2,0.2-0.3,0.3-0.4c0.1-0.1,0.2-0.2,0.4-0.3
			c0.1-0.1,0.3-0.2,0.5-0.4c0.1-0.2,0.2-0.3,0.3-0.4s0.1-0.3,0.1-0.5c0-0.1,0-0.2,0-0.3c0-0.1-0.1-0.2-0.1-0.2
			c-0.1-0.1-0.2-0.2-0.4-0.3c-0.1-0.1-0.3-0.1-0.5-0.1c-0.1,0-0.3,0-0.4,0.1s-0.2,0.1-0.3,0.2c-0.1,0.1-0.2,0.2-0.2,0.3
			c0,0.1-0.1,0.2-0.1,0.4h-1.3c0-0.3,0.1-0.6,0.3-0.9s0.3-0.5,0.6-0.7c0.2-0.1,0.4-0.2,0.6-0.3c0.2-0.1,0.5-0.1,0.7-0.1
			c0.4,0,0.7,0.1,1,0.2s0.6,0.3,0.8,0.6c0.2,0.2,0.3,0.4,0.3,0.6c0.1,0.2,0.1,0.4,0.1,0.7c0,0.3-0.1,0.7-0.2,0.9
			c-0.1,0.3-0.3,0.5-0.6,0.8c-0.1,0.1-0.2,0.2-0.3,0.3c-0.1,0.1-0.2,0.2-0.3,0.3s-0.1,0.2-0.2,0.3c-0.1,0.2-0.1,0.3-0.2,0.4
			c0,0.1,0,0.3,0,0.5H1218z M1218,76v-1.3h1.3V76H1218z"/>
	</g>
</g>
</svg>
